<?xml version="1.0" encoding="us-ascii" standalone="no"?><svg xmlns="http://www.w3.org/2000/svg" xmlns:xlink="http://www.w3.org/1999/xlink" contentStyleType="text/css" height="587px" preserveAspectRatio="none" style="width:1144px;height:587px;background:#FFFFFF;" version="1.1" viewBox="0 0 1144 587" width="1144px" zoomAndPan="magnify"><defs/><g><!--cluster example--><g id="cluster_example"><path d="M8.5,6 L75.5,6 A3.75,3.75 0 0 1 78,8.5 L85,28.2969 L1134.5,28.2969 A2.5,2.5 0 0 1 1137,30.7969 L1137,577.5 A2.5,2.5 0 0 1 1134.5,580 L8.5,580 A2.5,2.5 0 0 1 6,577.5 L6,8.5 A2.5,2.5 0 0 1 8.5,6 " fill="none" style="stroke:#000000;stroke-width:1.5;"/><line style="stroke:#000000;stroke-width:1.5;" x1="6" x2="85" y1="28.2969" y2="28.2969"/><text fill="#000000" font-family="sans-serif" font-size="14" font-weight="bold" lengthAdjust="spacing" textLength="66" x="10" y="20.9951">example</text></g><!--class example_ComplexMessage_optional_value--><g id="elem_example_ComplexMessage_optional_value"><rect codeLine="6" fill="#F1F1F1" height="32" id="example_ComplexMessage_optional_value" rx="2.5" ry="2.5" style="stroke:#181818;stroke-width:0.5;" width="131" x="295.5" y="353"/><ellipse cx="310.5" cy="369" fill="#A9DCDF" rx="11" ry="11" style="stroke:#181818;stroke-width:1.0;"/><path d="M310.6094,364.3438 L309.4531,369.4219 L311.7813,369.4219 L310.6094,364.3438 Z M309.125,362.1094 L312.1094,362.1094 L315.4688,374.5 L313.0156,374.5 L312.25,371.4375 L308.9688,371.4375 L308.2188,374.5 L305.7813,374.5 L309.125,362.1094 Z " fill="#000000"/><text fill="#000000" font-family="sans-serif" font-size="14" font-style="italic" lengthAdjust="spacing" textLength="99" x="324.5" y="373.8467">optional_value</text></g><!--class example_ComplexMessage_name_string--><g id="elem_example_ComplexMessage_name_string"><rect codeLine="8" fill="#F1F1F1" height="40.2656" id="example_ComplexMessage_name_string" rx="2.5" ry="2.5" style="stroke:#181818;stroke-width:0.5;" width="77" x="322.5" y="57.5"/><ellipse cx="337.5" cy="77.6328" fill="#FF7700" rx="11" ry="11" style="stroke:#181818;stroke-width:1.0;"/><path d="M337.0938,73.4453 L337.0938,81.4297 L337.75,81.4297 Q339.1875,81.4297 339.7969,80.5234 Q340.4219,79.6016 340.4219,77.4297 Q340.4219,75.2578 339.7969,74.3516 Q339.1875,73.4453 337.75,73.4453 L337.0938,73.4453 Z M334.6406,71.2422 L337.2656,71.2422 Q340.2969,71.2422 341.625,72.6953 Q342.9688,74.1328 342.9688,77.4297 Q342.9688,80.7266 341.625,82.1797 Q340.2969,83.6328 337.2656,83.6328 L334.6406,83.6328 L334.6406,71.2422 Z " fill="#000000"/><text fill="#000000" font-family="sans-serif" font-size="12" font-style="italic" lengthAdjust="spacing" textLength="49" x="349.5" y="73.6387">&#171;string&#187;</text><text fill="#000000" font-family="sans-serif" font-size="14" lengthAdjust="spacing" textLength="39" x="354.5" y="89.4639">name</text></g><!--class example_ComplexMessage_id_int32--><g id="elem_example_ComplexMessage_id_int32"><rect codeLine="10" fill="#F1F1F1" height="40.2656" id="example_ComplexMessage_id_int32" rx="2.5" ry="2.5" style="stroke:#181818;stroke-width:0.5;" width="74" x="213" y="57.5"/><ellipse cx="228" cy="77.6328" fill="#FF7700" rx="11" ry="11" style="stroke:#181818;stroke-width:1.0;"/><path d="M227.5938,73.4453 L227.5938,81.4297 L228.25,81.4297 Q229.6875,81.4297 230.2969,80.5234 Q230.9219,79.6016 230.9219,77.4297 Q230.9219,75.2578 230.2969,74.3516 Q229.6875,73.4453 228.25,73.4453 L227.5938,73.4453 Z M225.1406,71.2422 L227.7656,71.2422 Q230.7969,71.2422 232.125,72.6953 Q233.4688,74.1328 233.4688,77.4297 Q233.4688,80.7266 232.125,82.1797 Q230.7969,83.6328 227.7656,83.6328 L225.1406,83.6328 L225.1406,71.2422 Z " fill="#000000"/><text fill="#000000" font-family="sans-serif" font-size="12" font-style="italic" lengthAdjust="spacing" textLength="46" x="240" y="73.6387">&#171;int32&#187;</text><text fill="#000000" font-family="sans-serif" font-size="14" lengthAdjust="spacing" textLength="12" x="257" y="89.4639">id</text></g><!--class example_ComplexMessage--><g id="elem_example_ComplexMessage"><rect codeLine="12" fill="#F1F1F1" height="382.2344" id="example_ComplexMessage" rx="2.5" ry="2.5" style="stroke:#181818;stroke-width:0.5;" width="223" x="29.5" y="178"/><ellipse cx="75.25" cy="194" fill="#F1F1F1" rx="11" ry="11" style="stroke:#181818;stroke-width:1.0;"/><path d="M74.7344,194.5625 Q72.875,193.8594 72.2188,193.0938 Q71.5781,192.3125 71.5781,191 Q71.5781,189.3125 72.6563,188.3438 Q73.7344,187.375 75.6094,187.375 Q76.4688,187.375 77.3125,187.5781 Q78.1719,187.7656 79.0156,188.1563 L79.0156,190.5469 Q78.2344,189.9844 77.4063,189.7031 Q76.5938,189.4063 75.7969,189.4063 Q74.9219,189.4063 74.4375,189.7656 Q73.9688,190.125 73.9688,190.7813 Q73.9688,191.2969 74.3125,191.6406 Q74.6563,191.9688 75.75,192.375 L76.8125,192.7813 Q78.2969,193.3281 79,194.2344 Q79.7188,195.1406 79.7188,196.5156 Q79.7188,198.3906 78.6094,199.3125 Q77.5,200.2344 75.25,200.2344 Q74.3281,200.2344 73.4063,200.0156 Q72.4844,199.7969 71.625,199.375 L71.625,196.8438 Q72.5938,197.5313 73.5156,197.875 Q74.4375,198.2188 75.3281,198.2188 Q76.2344,198.2188 76.7344,197.8125 Q77.2344,197.3906 77.2344,196.6563 Q77.2344,196.0938 76.8906,195.6875 Q76.5625,195.2656 75.9375,195.0156 L74.7344,194.5625 Z " fill="#000000"/><text fill="#000000" font-family="sans-serif" font-size="14" lengthAdjust="spacing" textLength="123" x="95.75" y="198.8467">ComplexMessage</text><line style="stroke:#181818;stroke-width:0.5;" x1="30.5" x2="251.5" y1="210" y2="210"/><text fill="#000000" font-family="sans-serif" font-size="14" lengthAdjust="spacing" textLength="144" x="35.5" y="226.9951">double_field : double</text><text fill="#000000" font-family="sans-serif" font-size="14" lengthAdjust="spacing" textLength="106" x="35.5" y="243.292">float_field : float</text><text fill="#000000" font-family="sans-serif" font-size="14" lengthAdjust="spacing" textLength="118" x="35.5" y="259.5889">int32_field : int32</text><text fill="#000000" font-family="sans-serif" font-size="14" lengthAdjust="spacing" textLength="118" x="35.5" y="275.8857">int64_field : int64</text><text fill="#000000" font-family="sans-serif" font-size="14" lengthAdjust="spacing" textLength="136" x="35.5" y="292.1826">uint32_field : uint32</text><text fill="#000000" font-family="sans-serif" font-size="14" lengthAdjust="spacing" textLength="136" x="35.5" y="308.4795">uint64_field : uint64</text><text fill="#000000" font-family="sans-serif" font-size="14" lengthAdjust="spacing" textLength="134" x="35.5" y="324.7764">sint32_field : sint32</text><text fill="#000000" font-family="sans-serif" font-size="14" lengthAdjust="spacing" textLength="134" x="35.5" y="341.0732">sint64_field : sint64</text><text fill="#000000" font-family="sans-serif" font-size="14" lengthAdjust="spacing" textLength="148" x="35.5" y="357.3701">fixed32_field : fixed32</text><text fill="#000000" font-family="sans-serif" font-size="14" lengthAdjust="spacing" textLength="148" x="35.5" y="373.667">fixed64_field : fixed64</text><text fill="#000000" font-family="sans-serif" font-size="14" lengthAdjust="spacing" textLength="164" x="35.5" y="389.9639">sfixed32_field : sfixed32</text><text fill="#000000" font-family="sans-serif" font-size="14" lengthAdjust="spacing" textLength="164" x="35.5" y="406.2607">sfixed64_field : sfixed64</text><text fill="#000000" font-family="sans-serif" font-size="14" lengthAdjust="spacing" textLength="108" x="35.5" y="422.5576">bool_field : bool</text><text fill="#000000" font-family="sans-serif" font-size="14" lengthAdjust="spacing" textLength="126" x="35.5" y="438.8545">string_field : string</text><text fill="#000000" font-family="sans-serif" font-size="14" lengthAdjust="spacing" textLength="124" x="35.5" y="455.1514">bytes_field : bytes</text><text fill="#000000" font-family="sans-serif" font-size="14" lengthAdjust="spacing" textLength="100" x="35.5" y="471.4482">status : Status</text><text fill="#000000" font-family="sans-serif" font-size="14" lengthAdjust="spacing" textLength="92" x="35.5" y="487.7451">tags : string[]</text><text fill="#000000" font-family="sans-serif" font-size="14" lengthAdjust="spacing" textLength="211" x="35.5" y="504.042">attributes : map&lt;string,int32&gt;</text><text fill="#000000" font-family="sans-serif" font-size="14" lengthAdjust="spacing" textLength="168" x="35.5" y="520.3389">child : ComplexMessage</text><text fill="#000000" font-family="sans-serif" font-size="14" lengthAdjust="spacing" textLength="103" x="35.5" y="536.6357">metadata : Any</text><text fill="#000000" font-family="sans-serif" font-size="14" lengthAdjust="spacing" textLength="209" x="35.5" y="552.9326">optional_value : optional_value</text></g><!--class example_ComplexMessageRequest--><g id="elem_example_ComplexMessageRequest"><rect codeLine="36" fill="#F1F1F1" height="56.2969" id="example_ComplexMessageRequest" rx="2.5" ry="2.5" style="stroke:#181818;stroke-width:0.5;" width="214" x="435" y="49.5"/><ellipse cx="450" cy="65.5" fill="#F1F1F1" rx="11" ry="11" style="stroke:#181818;stroke-width:1.0;"/><path d="M449.4844,66.0625 Q447.625,65.3594 446.9688,64.5938 Q446.3281,63.8125 446.3281,62.5 Q446.3281,60.8125 447.4063,59.8438 Q448.4844,58.875 450.3594,58.875 Q451.2188,58.875 452.0625,59.0781 Q452.9219,59.2656 453.7656,59.6563 L453.7656,62.0469 Q452.9844,61.4844 452.1563,61.2031 Q451.3438,60.9063 450.5469,60.9063 Q449.6719,60.9063 449.1875,61.2656 Q448.7188,61.625 448.7188,62.2813 Q448.7188,62.7969 449.0625,63.1406 Q449.4063,63.4688 450.5,63.875 L451.5625,64.2813 Q453.0469,64.8281 453.75,65.7344 Q454.4688,66.6406 454.4688,68.0156 Q454.4688,69.8906 453.3594,70.8125 Q452.25,71.7344 450,71.7344 Q449.0781,71.7344 448.1563,71.5156 Q447.2344,71.2969 446.375,70.875 L446.375,68.3438 Q447.3438,69.0313 448.2656,69.375 Q449.1875,69.7188 450.0781,69.7188 Q450.9844,69.7188 451.4844,69.3125 Q451.9844,68.8906 451.9844,68.1563 Q451.9844,67.5938 451.6406,67.1875 Q451.3125,66.7656 450.6875,66.5156 L449.4844,66.0625 Z " fill="#000000"/><text fill="#000000" font-family="sans-serif" font-size="14" lengthAdjust="spacing" textLength="182" x="464" y="70.3467">ComplexMessageRequest</text><line style="stroke:#181818;stroke-width:0.5;" x1="436" x2="648" y1="81.5" y2="81.5"/><text fill="#000000" font-family="sans-serif" font-size="14" lengthAdjust="spacing" textLength="60" x="441" y="98.4951">id : int32</text></g><!--class example_ComplexMessageResponse--><g id="elem_example_ComplexMessageResponse"><rect codeLine="40" fill="#F1F1F1" height="72.5938" id="example_ComplexMessageResponse" rx="2.5" ry="2.5" style="stroke:#181818;stroke-width:0.5;" width="226" x="684" y="41"/><ellipse cx="699" cy="57" fill="#F1F1F1" rx="11" ry="11" style="stroke:#181818;stroke-width:1.0;"/><path d="M698.4844,57.5625 Q696.625,56.8594 695.9688,56.0938 Q695.3281,55.3125 695.3281,54 Q695.3281,52.3125 696.4063,51.3438 Q697.4844,50.375 699.3594,50.375 Q700.2188,50.375 701.0625,50.5781 Q701.9219,50.7656 702.7656,51.1563 L702.7656,53.5469 Q701.9844,52.9844 701.1563,52.7031 Q700.3438,52.4063 699.5469,52.4063 Q698.6719,52.4063 698.1875,52.7656 Q697.7188,53.125 697.7188,53.7813 Q697.7188,54.2969 698.0625,54.6406 Q698.4063,54.9688 699.5,55.375 L700.5625,55.7813 Q702.0469,56.3281 702.75,57.2344 Q703.4688,58.1406 703.4688,59.5156 Q703.4688,61.3906 702.3594,62.3125 Q701.25,63.2344 699,63.2344 Q698.0781,63.2344 697.1563,63.0156 Q696.2344,62.7969 695.375,62.375 L695.375,59.8438 Q696.3438,60.5313 697.2656,60.875 Q698.1875,61.2188 699.0781,61.2188 Q699.9844,61.2188 700.4844,60.8125 Q700.9844,60.3906 700.9844,59.6563 Q700.9844,59.0938 700.6406,58.6875 Q700.3125,58.2656 699.6875,58.0156 L698.4844,57.5625 Z " fill="#000000"/><text fill="#000000" font-family="sans-serif" font-size="14" lengthAdjust="spacing" textLength="194" x="713" y="61.8467">ComplexMessageResponse</text><line style="stroke:#181818;stroke-width:0.5;" x1="685" x2="909" y1="73" y2="73"/><text fill="#000000" font-family="sans-serif" font-size="14" lengthAdjust="spacing" textLength="101" x="690" y="89.9951">success : bool</text><text fill="#000000" font-family="sans-serif" font-size="14" lengthAdjust="spacing" textLength="116" x="690" y="106.292">message : string</text></g><!--class example_Status--><g id="elem_example_Status"><rect codeLine="45" fill="#F1F1F1" height="105.1875" id="example_Status" rx="2.5" ry="2.5" style="stroke:#181818;stroke-width:0.5;" width="108" x="462" y="316.5"/><ellipse cx="491.4" cy="332.5" fill="#EB937F" rx="11" ry="11" style="stroke:#181818;stroke-width:1.0;"/><path d="M495.5094,338.5 L487.7906,338.5 L487.7906,326.1094 L495.5094,326.1094 L495.5094,328.2656 L490.2438,328.2656 L490.2438,330.9375 L495.0094,330.9375 L495.0094,333.0938 L490.2438,333.0938 L490.2438,336.3438 L495.5094,336.3438 L495.5094,338.5 Z " fill="#000000"/><text fill="#000000" font-family="sans-serif" font-size="14" lengthAdjust="spacing" textLength="44" x="508.6" y="337.3467">Status</text><line style="stroke:#181818;stroke-width:0.5;" x1="463" x2="569" y1="348.5" y2="348.5"/><text fill="#000000" font-family="sans-serif" font-size="14" lengthAdjust="spacing" textLength="96" x="468" y="365.4951">UNKNOWN (0)</text><text fill="#000000" font-family="sans-serif" font-size="14" lengthAdjust="spacing" textLength="72" x="468" y="381.792">ACTIVE (1)</text><text fill="#000000" font-family="sans-serif" font-size="14" lengthAdjust="spacing" textLength="85" x="468" y="398.0889">INACTIVE (2)</text><text fill="#000000" font-family="sans-serif" font-size="14" lengthAdjust="spacing" textLength="88" x="468" y="414.3857">DELETED (3)</text></g><!--class example_ExampleService--><g id="elem_example_ExampleService"><rect codeLine="52" fill="#F1F1F1" height="72.5938" id="example_ExampleService" rx="2.5" ry="2.5" style="stroke:#181818;stroke-width:0.5;" width="516" x="605" y="332.5"/><ellipse cx="803.75" cy="348.5" fill="#B4A7E5" rx="11" ry="11" style="stroke:#181818;stroke-width:1.0;"/><path d="M799.6719,344.2656 L799.6719,342.1094 L807.0625,342.1094 L807.0625,344.2656 L804.5938,344.2656 L804.5938,352.3438 L807.0625,352.3438 L807.0625,354.5 L799.6719,354.5 L799.6719,352.3438 L802.1406,352.3438 L802.1406,344.2656 L799.6719,344.2656 Z " fill="#000000"/><text fill="#000000" font-family="sans-serif" font-size="14" font-style="italic" lengthAdjust="spacing" textLength="110" x="824.25" y="353.3467">ExampleService</text><line style="stroke:#181818;stroke-width:0.5;" x1="606" x2="1120" y1="364.5" y2="364.5"/><text fill="#000000" font-family="sans-serif" font-size="14" lengthAdjust="spacing" textLength="467" x="611" y="381.4951">GetComplexMessage(ComplexMessageRequest) ComplexMessage</text><text fill="#000000" font-family="sans-serif" font-size="14" lengthAdjust="spacing" textLength="504" x="611" y="397.792">UpdateComplexMessage(ComplexMessage) ComplexMessageResponse</text></g><!--link example_ComplexMessage to example_ComplexMessage_optional_value--><g id="link_example_ComplexMessage_example_ComplexMessage_optional_value"><path codeLine="57" d="M254,547 C332.95,561.58 354.44,432.79 358.96,385.06 " fill="none" id="example_ComplexMessage-example_ComplexMessage_optional_value" style="stroke:#181818;stroke-width:1.0;"/></g><!--link example_ComplexMessage_name_string to example_ComplexMessage_optional_value--><g id="link_example_ComplexMessage_name_string_example_ComplexMessage_optional_value"><path codeLine="58" d="M361,97.94 C361,152.2 361,286.46 361,334.96 " fill="none" id="example_ComplexMessage_name_string-to-example_ComplexMessage_optional_value" style="stroke:#181818;stroke-width:1.0;"/><polygon fill="none" points="361,352.96,367,334.96,355,334.96,361,352.96" style="stroke:#181818;stroke-width:1.0;"/></g><!--link example_ComplexMessage_id_int32 to example_ComplexMessage_optional_value--><g id="link_example_ComplexMessage_id_int32_example_ComplexMessage_optional_value"><path codeLine="59" d="M257.46,97.94 C278.26,152.2 330.1977,287.6524 348.7877,336.1524 " fill="none" id="example_ComplexMessage_id_int32-to-example_ComplexMessage_optional_value" style="stroke:#181818;stroke-width:1.0;"/><polygon fill="none" points="355.23,352.96,354.3902,334.0049,343.1851,338.2998,355.23,352.96" style="stroke:#181818;stroke-width:1.0;"/></g><!--SRC=[fLHTQzim57sEVuN8NXne8FsWXH02fN57sPR1scuFOnZ5LX8ns_9ofPBGzR_lIh9io-kybZvPvznpZgshQsrvoWZBItaWEPDRaKAmRQWrPnaoGKcJdtI3x9xcPSO8XNhv60o20Ls1tD54ag4e9HS5pU87cYasR2dZAw4V-qyC0BDYNwbJC4FfZ8BclKvTZr7CYyri5YwEtbrVNrnC9YDYkVcy7SRJlYYUnhoGfoT-Zg7y6D_N4waRCaY5Mc75j8zCYON8hpD1PKqRXAnvNSqQPDdpipPxVeQiyiNAgPKlLquFlXwS7dmzEFsQxrdQCbJOLLgM2kkihWaQ5tHjqFXMGcGrhu7McoDir0PgxK4oQCGQ6JML2f2uDGja9Dr0xVl-0nagSRrIQ40-f-NCrexi8QCWsN8JwfyZ5l27e2cL56kNnG49VsIHxixmqxz7vWlxfHZ8dicf56Q0U6iIUaEX50MmtbGhCR6WaWJffjrvDRHDfytRMA5oChHDzR8jfQFkbn-MdxyjIJWP8Rgykhlv6f7mM8ERfOCd6YwYZz5Tj23XwQYAnusntPecZ0mZ6tpBTWyyyVVXbyptlsVItrtuR0j7Vv_bVOadoNhDNPVhdEl9i-sTJZj3CNxfVVV_ousCnx_dRunp5zohieAd8FW3]--></g></svg>